<mxfile>
    <diagram id="nmYvi8qGq6PqC2IRUNrf" name="Page-1">
        <mxGraphModel dx="327" dy="207" grid="1" gridSize="30" guides="1" tooltips="1" connect="1" arrows="1" fold="1" page="1" pageScale="1" pageWidth="413" pageHeight="291" background="#ffffff" math="0" shadow="0">
            <root>
                <mxCell id="0"/>
                <mxCell id="1" parent="0"/>
                <mxCell id="39" value="" style="shape=table;html=1;whiteSpace=wrap;startSize=0;container=1;collapsible=0;childLayout=tableLayout;strokeColor=#000000;sketch=1;rounded=1;strokeWidth=3;swimlaneFillColor=none;fillStyle=solid;fillColor=#CCFFFF;sketchStyle=rough;" vertex="1" parent="1">
                    <mxGeometry x="30" y="60" width="510" height="60" as="geometry"/>
                </mxCell>
                <mxCell id="40" value="" style="shape=partialRectangle;html=1;whiteSpace=wrap;collapsible=0;dropTarget=0;pointerEvents=0;fillColor=none;top=0;left=0;bottom=0;right=0;points=[[0,0.5],[1,0.5]];portConstraint=eastwest;strokeWidth=3;" vertex="1" parent="39">
                    <mxGeometry width="510" height="60" as="geometry"/>
                </mxCell>
                <mxCell id="41" value="BGZF Block 0" style="shape=partialRectangle;html=1;whiteSpace=wrap;connectable=0;top=0;left=0;bottom=0;right=0;overflow=hidden;labelPosition=center;verticalLabelPosition=middle;align=right;verticalAlign=top;textDirection=ltr;fontColor=#999999;strokeWidth=3;sketch=1;sketchStyle=rough;hachureGap=-10;hachureAngle=-85;fillStyle=hachure;fillColor=none;" vertex="1" parent="40">
                    <mxGeometry width="80" height="60" as="geometry"/>
                </mxCell>
                <mxCell id="42" value="1" style="shape=partialRectangle;html=1;whiteSpace=wrap;connectable=0;fillColor=none;top=0;left=0;bottom=0;right=0;overflow=hidden;labelPosition=center;verticalLabelPosition=middle;align=right;verticalAlign=top;textDirection=ltr;fontColor=#999999;strokeWidth=3;" vertex="1" parent="40">
                    <mxGeometry x="80" width="40" height="60" as="geometry"/>
                </mxCell>
                <mxCell id="43" value="2" style="shape=partialRectangle;html=1;whiteSpace=wrap;connectable=0;fillColor=none;top=0;left=0;bottom=0;right=0;overflow=hidden;labelPosition=center;verticalLabelPosition=middle;align=right;verticalAlign=top;textDirection=ltr;fontColor=#999999;strokeWidth=3;" vertex="1" parent="40">
                    <mxGeometry x="120" width="90" height="60" as="geometry"/>
                </mxCell>
                <mxCell id="52" value="3" style="shape=partialRectangle;html=1;whiteSpace=wrap;connectable=0;fillColor=none;top=0;left=0;bottom=0;right=0;overflow=hidden;labelPosition=center;verticalLabelPosition=middle;align=right;verticalAlign=top;textDirection=ltr;fontColor=#999999;strokeWidth=3;shadow=0;sketch=0;" vertex="1" parent="40">
                    <mxGeometry x="210" width="210" height="60" as="geometry"/>
                </mxCell>
                <mxCell id="53" value="4" style="shape=partialRectangle;html=1;whiteSpace=wrap;connectable=0;fillColor=none;top=0;left=0;bottom=0;right=0;overflow=hidden;labelPosition=center;verticalLabelPosition=middle;align=right;verticalAlign=top;textDirection=ltr;fontColor=#999999;strokeWidth=3;" vertex="1" parent="40">
                    <mxGeometry x="420" width="90" height="60" as="geometry"/>
                </mxCell>
                <mxCell id="64" style="orthogonalLoop=1;jettySize=auto;html=1;exitX=1;exitY=0.5;exitDx=0;exitDy=0;entryX=0;entryY=0.5;entryDx=0;entryDy=0;fontColor=#999999;rounded=0;strokeColor=#FF99CC;endArrow=async;endFill=1;sketch=1;sketchStyle=comic;align=center;" edge="1" parent="1" source="61" target="62">
                    <mxGeometry relative="1" as="geometry"/>
                </mxCell>
                <mxCell id="61" value="&lt;font style=&quot;font-size: 10px;&quot;&gt;BAM&lt;br style=&quot;font-size: 10px;&quot;&gt;header&lt;/font&gt;" style="rounded=0;whiteSpace=wrap;html=1;shadow=0;labelBackgroundColor=none;sketch=1;hachureGap=-10;hachureAngle=-85;sketchStyle=comic;strokeColor=#ae4132;strokeWidth=1;align=center;fillColor=#fad9d5;fontColor=#000000;verticalAlign=middle;horizontal=1;textDirection=ltr;fontSize=10;" vertex="1" parent="1">
                    <mxGeometry x="42" y="86" width="48" height="25" as="geometry"/>
                </mxCell>
                <mxCell id="66" style="edgeStyle=none;rounded=0;orthogonalLoop=1;jettySize=auto;html=1;exitX=1;exitY=0.5;exitDx=0;exitDy=0;endArrow=async;endFill=1;strokeColor=#FF99CC;fontColor=#999999;sketch=1;sketchStyle=comic;align=center;" edge="1" parent="1" source="62" target="65">
                    <mxGeometry relative="1" as="geometry"/>
                </mxCell>
                <mxCell id="62" value="A1" style="rounded=0;whiteSpace=wrap;html=1;shadow=0;labelBackgroundColor=none;sketch=1;hachureGap=-10;hachureAngle=-85;sketchStyle=comic;strokeColor=#ae4132;strokeWidth=1;align=center;fillColor=#fad9d5;fontColor=#000000;" vertex="1" parent="1">
                    <mxGeometry x="120" y="86" width="22" height="25" as="geometry"/>
                </mxCell>
                <mxCell id="68" style="edgeStyle=none;rounded=0;sketch=1;orthogonalLoop=1;jettySize=auto;html=1;exitX=1;exitY=0.5;exitDx=0;exitDy=0;entryX=0;entryY=0.5;entryDx=0;entryDy=0;endArrow=async;endFill=1;strokeColor=#FF99CC;fontColor=#999999;sketchStyle=comic;align=center;" edge="1" parent="1" source="65" target="67">
                    <mxGeometry relative="1" as="geometry"/>
                </mxCell>
                <mxCell id="65" value="A2" style="rounded=0;whiteSpace=wrap;html=1;shadow=0;labelBackgroundColor=none;sketch=1;hachureGap=-10;hachureAngle=-85;sketchStyle=comic;strokeColor=#ae4132;strokeWidth=1;align=center;fillColor=#fad9d5;fontColor=#000000;" vertex="1" parent="1">
                    <mxGeometry x="159" y="86" width="75" height="25" as="geometry"/>
                </mxCell>
                <mxCell id="67" value="A3" style="rounded=0;whiteSpace=wrap;html=1;shadow=0;labelBackgroundColor=none;sketch=1;hachureGap=-10;hachureAngle=-85;sketchStyle=comic;strokeColor=#ae4132;strokeWidth=1;align=center;fillColor=#fad9d5;fontColor=#000000;" vertex="1" parent="1">
                    <mxGeometry x="247.5" y="86" width="22.5" height="25" as="geometry"/>
                </mxCell>
                <mxCell id="69" value="A8" style="rounded=0;whiteSpace=wrap;html=1;shadow=0;labelBackgroundColor=none;sketch=1;hachureGap=-10;hachureAngle=-85;sketchStyle=comic;strokeColor=#ae4132;strokeWidth=1;align=center;fillColor=#fad9d5;fontColor=#000000;" vertex="1" parent="1">
                    <mxGeometry x="455" y="86" width="15" height="25" as="geometry"/>
                </mxCell>
                <mxCell id="71" value="A4" style="rounded=0;whiteSpace=wrap;html=1;shadow=0;labelBackgroundColor=none;sketch=1;hachureGap=-10;hachureAngle=-85;sketchStyle=comic;strokeColor=#ae4132;strokeWidth=1;align=center;fillColor=#fad9d5;fontColor=#000000;" vertex="1" parent="1">
                    <mxGeometry x="273.75" y="86" width="56.25" height="25" as="geometry"/>
                </mxCell>
                <mxCell id="73" value="A5" style="rounded=0;whiteSpace=wrap;html=1;shadow=0;labelBackgroundColor=none;sketch=1;hachureGap=-10;hachureAngle=-85;sketchStyle=comic;strokeColor=#ae4132;strokeWidth=1;align=center;fillColor=#fad9d5;fontColor=#000000;" vertex="1" parent="1">
                    <mxGeometry x="333" y="86" width="20" height="25" as="geometry"/>
                </mxCell>
                <mxCell id="74" value="A6" style="rounded=0;whiteSpace=wrap;html=1;shadow=0;labelBackgroundColor=none;sketch=1;hachureGap=-10;hachureAngle=-85;sketchStyle=comic;strokeColor=#ae4132;strokeWidth=1;align=center;fillColor=#fad9d5;fontColor=#000000;" vertex="1" parent="1">
                    <mxGeometry x="356" y="86" width="37" height="25" as="geometry"/>
                </mxCell>
                <mxCell id="75" value="A9" style="rounded=0;whiteSpace=wrap;html=1;shadow=0;labelBackgroundColor=none;sketch=1;hachureGap=-10;hachureAngle=-85;sketchStyle=comic;strokeColor=#ae4132;strokeWidth=1;align=center;fillColor=#fad9d5;fontColor=#000000;" vertex="1" parent="1">
                    <mxGeometry x="472" y="86" width="61" height="25" as="geometry"/>
                </mxCell>
                <mxCell id="79" style="edgeStyle=none;rounded=0;sketch=1;orthogonalLoop=1;jettySize=auto;html=1;exitX=1;exitY=0.5;exitDx=0;exitDy=0;entryX=0;entryY=0.5;entryDx=0;entryDy=0;endArrow=async;endFill=1;strokeColor=#FF99CC;fontColor=#000000;align=center;sketchStyle=comic;" edge="1" parent="1" source="76" target="69">
                    <mxGeometry relative="1" as="geometry"/>
                </mxCell>
                <mxCell id="76" value="A7" style="rounded=0;whiteSpace=wrap;html=1;shadow=0;labelBackgroundColor=none;sketch=1;hachureGap=-10;hachureAngle=-85;sketchStyle=comic;strokeColor=#ae4132;strokeWidth=1;align=center;fillColor=#fad9d5;fontColor=#000000;" vertex="1" parent="1">
                    <mxGeometry x="396" y="86" width="47" height="25" as="geometry"/>
                </mxCell>
                <mxCell id="80" value="&amp;lt; 64KiB" style="shape=curlyBracket;rounded=1;shadow=0;labelBackgroundColor=none;sketch=1;hachureGap=-10;hachureAngle=-85;sketchStyle=comic;strokeColor=#000000;strokeWidth=1;fillColor=none;gradientColor=none;fontColor=#000000;align=center;rotation=90;flipH=1;size=0.5;horizontal=0;verticalAlign=bottom;labelPosition=center;verticalLabelPosition=middle;fontSize=12;fontStyle=0;spacing=2;spacingTop=0;spacingBottom=-14;html=1;" vertex="1" parent="1">
                    <mxGeometry x="49.75" y="105.25" width="33.5" height="48" as="geometry"/>
                </mxCell>
                <mxCell id="81" value="&amp;lt; 64KiB" style="shape=curlyBracket;html=1;rounded=1;shadow=0;labelBackgroundColor=none;sketch=1;hachureGap=-10;hachureAngle=-85;sketchStyle=comic;strokeColor=#000000;strokeWidth=1;fillColor=none;gradientColor=none;fontColor=#000000;align=center;rotation=90;flipH=1;size=0.5;horizontal=0;verticalAlign=bottom;labelPosition=center;verticalLabelPosition=middle;fontSize=12;fontStyle=0;spacing=2;spacingTop=0;spacingBottom=-14;" vertex="1" parent="1">
                    <mxGeometry x="114.07" y="117.94" width="33.5" height="22.63" as="geometry"/>
                </mxCell>
                <mxCell id="82" value="&amp;lt; 64KiB" style="shape=curlyBracket;html=1;rounded=1;shadow=0;labelBackgroundColor=none;sketch=1;hachureGap=-10;hachureAngle=-85;sketchStyle=comic;strokeColor=#000000;strokeWidth=1;fillColor=none;gradientColor=none;fontColor=#000000;align=center;rotation=90;flipH=1;size=0.5;horizontal=0;verticalAlign=bottom;labelPosition=center;verticalLabelPosition=middle;fontSize=12;fontStyle=0;spacing=2;spacingTop=0;spacingBottom=-14;" vertex="1" parent="1">
                    <mxGeometry x="179.39" y="92.12" width="33.5" height="74.27" as="geometry"/>
                </mxCell>
                <mxCell id="83" value="&amp;lt; 64KiB" style="shape=curlyBracket;html=1;rounded=1;shadow=0;labelBackgroundColor=none;sketch=1;hachureGap=-10;hachureAngle=-85;sketchStyle=comic;strokeColor=#000000;strokeWidth=1;fillColor=none;gradientColor=none;fontColor=#000000;align=center;rotation=90;flipH=1;size=0.5;horizontal=0;verticalAlign=bottom;labelPosition=center;verticalLabelPosition=middle;fontSize=12;fontStyle=0;spacing=2;spacingTop=0;spacingBottom=-14;" vertex="1" parent="1">
                    <mxGeometry x="328.31" y="32.06" width="33.5" height="194.39" as="geometry"/>
                </mxCell>
                <mxCell id="84" value="&amp;lt; 64KiB" style="shape=curlyBracket;html=1;rounded=1;shadow=0;labelBackgroundColor=none;sketch=1;hachureGap=-10;hachureAngle=-85;sketchStyle=comic;strokeColor=#000000;strokeWidth=1;fillColor=none;gradientColor=none;fontColor=#000000;align=center;rotation=90;flipH=1;size=0.5;horizontal=0;verticalAlign=bottom;labelPosition=center;verticalLabelPosition=middle;fontSize=12;fontStyle=0;spacing=2;spacingTop=0;spacingBottom=-14;" vertex="1" parent="1">
                    <mxGeometry x="477.12" y="90.39" width="33.5" height="77.72" as="geometry"/>
                </mxCell>
            </root>
        </mxGraphModel>
    </diagram>
</mxfile>
